<?xml version="1.0" standalone="no"?>
<!DOCTYPE svg PUBLIC "-//W3C//DTD SVG 20010904//EN"
 "http://www.w3.org/TR/2001/REC-SVG-20010904/DTD/svg10.dtd">
<svg version="1.0" xmlns="http://www.w3.org/2000/svg"
 width="700.000000pt" height="700.000000pt" viewBox="0 0 700.000000 700.000000"
 preserveAspectRatio="xMidYMid meet">
<metadata>
Created by potrace 1.14, written by Peter Selinger 2001-2017
</metadata>
<g transform="translate(0.000000,700.000000) scale(0.100000,-0.100000)"
fill="#000000" stroke="none">
<path d="M0 3500 l0 -3500 3500 0 3500 0 0 3500 0 3500 -3500 0 -3500 0 0
-3500z m5300 2821 c5 -1 2 -2031 -3 -2061 -2 -12 -135 -14 -1020 -15 -559 0
-1017 2 -1017 5 0 3 134 138 298 301 l297 297 413 -2 c228 0 418 1 423 4 9 6
13 859 4 868 -6 7 -2072 11 -2090 5 -7 -2 -10 -476 -9 -1398 1 -1008 -2 -1395
-10 -1396 -55 -5 -565 -3 -576 2 -13 6 -15 204 -13 1701 1 931 2 1693 2 1693
709 0 3298 -3 3301 -4z m-305 -2250 c7 -1 9 -571 8 -1693 -1 -931 -2 -1695 -2
-1698 -1 -3 -743 -5 -1651 -5 -1643 0 -1650 0 -1651 20 -3 102 3 2050 7 2054
6 7 2034 8 2034 1 0 -3 -134 -138 -297 -301 l-298 -297 -423 2 -422 1 0 -440
0 -440 1052 0 1051 1 0 1396 0 1397 26 3 c21 2 534 1 566 -1z"/>
</g>
</svg>
