<?xml version="1.0" encoding="UTF-8" standalone="no"?>
<!DOCTYPE svg PUBLIC "-//W3C//DTD SVG 1.1//EN" "http://www.w3.org/Graphics/SVG/1.1/DTD/svg11.dtd">
<svg width="100%" height="100%" viewBox="0 0 100 100" version="1.1" xmlns="http://www.w3.org/2000/svg" xmlns:xlink="http://www.w3.org/1999/xlink" xml:space="preserve" xmlns:serif="http://www.serif.com/" style="fill-rule:evenodd;clip-rule:evenodd;stroke-linejoin:round;stroke-miterlimit:1.41421;">
    <g transform="matrix(0.282846,0,0,0.282846,75.7052,60.6578)">
        <g id="Layer-1" serif:id="Layer 1">
            <path d="M0,-75.363L-103.498,-75.363L-73.179,-105.682L-30.266,-105.682L-30.192,-150.009L-136.457,-150.009L-136.457,-8.73L-166.776,-8.73L-166.776,-180.328L0.174,-180.328L0,-75.363ZM-14.986,104.965L-181.936,104.965L-181.762,0L-78.264,0L-108.584,30.32L-151.496,30.32L-151.57,74.647L-45.305,74.647L-45.305,-66.633L-14.986,-66.633L-14.986,104.965ZM-267.655,139.092L85.894,139.092L85.894,-214.455L-267.655,-214.455L-267.655,139.092Z" style="fill:rgb(220, 53, 69);fill-rule:nonzero;"/>
        </g>
    </g>
</svg>
